<?xml version="1.0" encoding="us-ascii" standalone="no"?><svg xmlns="http://www.w3.org/2000/svg" xmlns:xlink="http://www.w3.org/1999/xlink" contentStyleType="text/css" height="1125px" preserveAspectRatio="none" style="width:5863px;height:1125px;background:#FFFFFF;" version="1.1" viewBox="0 0 5863 1125" width="5863px" zoomAndPan="magnify"><defs/><g><!--class Game--><g id="elem_Game"><rect codeLine="3" fill="#F1F1F1" height="453.0156" id="Game" rx="2.5" ry="2.5" style="stroke:#181818;stroke-width:0.5;" width="560" x="3646.5" y="7"/><ellipse cx="3903.25" cy="23" fill="#ADD1B2" rx="11" ry="11" style="stroke:#181818;stroke-width:1.0;"/><path d="M3906.0156,18.875 Q3906.1719,18.6563 3906.3594,18.5469 Q3906.5469,18.4375 3906.7656,18.4375 Q3907.1406,18.4375 3907.375,18.7031 Q3907.6094,18.9531 3907.6094,19.5625 L3907.6094,21.0156 Q3907.6094,21.625 3907.375,21.8906 Q3907.1406,22.1563 3906.7656,22.1563 Q3906.4219,22.1563 3906.2188,21.9531 Q3906.0156,21.7656 3905.9063,21.25 Q3905.8594,20.8906 3905.6719,20.7031 Q3905.3438,20.3281 3904.7344,20.1094 Q3904.125,19.8906 3903.5,19.8906 Q3902.7344,19.8906 3902.0938,20.2188 Q3901.4688,20.5469 3900.9688,21.2969 Q3900.4844,22.0469 3900.4844,23.0781 L3900.4844,24.1719 Q3900.4844,25.4063 3901.375,26.2344 Q3902.2656,27.0469 3903.8594,27.0469 Q3904.7969,27.0469 3905.4531,26.7969 Q3905.8438,26.6406 3906.2656,26.2031 Q3906.5313,25.9375 3906.6719,25.8594 Q3906.8281,25.7813 3907.0313,25.7813 Q3907.3594,25.7813 3907.6094,26.0469 Q3907.875,26.2969 3907.875,26.6406 Q3907.875,26.9844 3907.5313,27.3906 Q3907.0313,27.9688 3906.2344,28.2969 Q3905.1563,28.75 3903.8594,28.75 Q3902.3438,28.75 3901.1406,28.125 Q3900.1563,27.625 3899.4688,26.5625 Q3898.7813,25.4844 3898.7813,24.2031 L3898.7813,23.0469 Q3898.7813,21.7188 3899.3906,20.5781 Q3900.0156,19.4219 3901.1094,18.8125 Q3902.2031,18.1875 3903.4375,18.1875 Q3904.1719,18.1875 3904.8125,18.3594 Q3905.4688,18.5156 3906.0156,18.875 Z " fill="#000000"/><text fill="#000000" font-family="sans-serif" font-size="14" lengthAdjust="spacing" textLength="38" x="3923.75" y="28.7285">Game</text><line style="stroke:#181818;stroke-width:0.5;" x1="3647.5" x2="4205.5" y1="39" y2="39"/><rect fill="none" height="6" style="stroke:#C82930;stroke-width:1.0;" width="6" x="3654.5" y="50.3047"/><text fill="#000000" font-family="sans-serif" font-size="14" lengthAdjust="spacing" textLength="59" x="3666.5" y="57.5332">Width: int</text><rect fill="none" height="6" style="stroke:#C82930;stroke-width:1.0;" width="6" x="3654.5" y="67.9141"/><text fill="#000000" font-family="sans-serif" font-size="14" lengthAdjust="spacing" textLength="63" x="3666.5" y="75.1426">Height: int</text><rect fill="none" height="6" style="stroke:#C82930;stroke-width:1.0;" width="6" x="3654.5" y="85.5234"/><text fill="#000000" font-family="sans-serif" font-size="14" lengthAdjust="spacing" textLength="135" x="3666.5" y="92.752">Win: pygame.Surface</text><rect fill="none" height="6" style="stroke:#C82930;stroke-width:1.0;" width="6" x="3654.5" y="103.1328"/><text fill="#000000" font-family="sans-serif" font-size="14" lengthAdjust="spacing" textLength="84" x="3666.5" y="110.3613">Board: Board</text><rect fill="none" height="6" style="stroke:#C82930;stroke-width:1.0;" width="6" x="3654.5" y="120.7422"/><text fill="#000000" font-family="sans-serif" font-size="14" lengthAdjust="spacing" textLength="69" x="3666.5" y="127.9707">Square: int</text><rect fill="none" height="6" style="stroke:#C82930;stroke-width:1.0;" width="6" x="3654.5" y="138.3516"/><text fill="#000000" font-family="sans-serif" font-size="14" lengthAdjust="spacing" textLength="96" x="3666.5" y="145.5801">selected: Piece</text><rect fill="none" height="6" style="stroke:#C82930;stroke-width:1.0;" width="6" x="3654.5" y="155.9609"/><text fill="#000000" font-family="sans-serif" font-size="14" lengthAdjust="spacing" textLength="138" x="3666.5" y="163.1895">turn: Tuple[int, int, int]</text><rect fill="none" height="6" style="stroke:#C82930;stroke-width:1.0;" width="6" x="3654.5" y="173.5703"/><text fill="#000000" font-family="sans-serif" font-size="14" lengthAdjust="spacing" textLength="198" x="3666.5" y="180.7988">valid_moves: List[Tuple[int, int]]</text><rect fill="none" height="6" style="stroke:#C82930;stroke-width:1.0;" width="6" x="3654.5" y="191.1797"/><text fill="#000000" font-family="sans-serif" font-size="14" lengthAdjust="spacing" textLength="133" x="3666.5" y="198.4082">Black_pieces_left: int</text><rect fill="none" height="6" style="stroke:#C82930;stroke-width:1.0;" width="6" x="3654.5" y="208.7891"/><text fill="#000000" font-family="sans-serif" font-size="14" lengthAdjust="spacing" textLength="135" x="3666.5" y="216.0176">White_pieces_left: int</text><rect fill="none" height="6" style="stroke:#C82930;stroke-width:1.0;" width="6" x="3654.5" y="226.3984"/><text fill="#000000" font-family="sans-serif" font-size="14" lengthAdjust="spacing" textLength="106" x="3666.5" y="233.627">game_over: bool</text><rect fill="none" height="6" style="stroke:#C82930;stroke-width:1.0;" width="6" x="3654.5" y="244.0078"/><text fill="#000000" font-family="sans-serif" font-size="14" lengthAdjust="spacing" textLength="65" x="3666.5" y="251.2363">winner: str</text><line style="stroke:#181818;stroke-width:0.5;" x1="3647.5" x2="4205.5" y1="258.3125" y2="258.3125"/><ellipse cx="3657.5" cy="272.6172" fill="#84BE84" rx="3" ry="3" style="stroke:#038048;stroke-width:1.0;"/><text fill="#000000" font-family="sans-serif" font-size="14" lengthAdjust="spacing" textLength="534" x="3666.5" y="276.8457">__init__(Width: int, Height: int, Rows: int, Cols: int, Square: int, Win: pygame.Surface)</text><ellipse cx="3657.5" cy="290.2266" fill="#84BE84" rx="3" ry="3" style="stroke:#038048;stroke-width:1.0;"/><text fill="#000000" font-family="sans-serif" font-size="14" lengthAdjust="spacing" textLength="141" x="3666.5" y="294.4551">update_window(): void</text><ellipse cx="3657.5" cy="307.8359" fill="#84BE84" rx="3" ry="3" style="stroke:#038048;stroke-width:1.0;"/><text fill="#000000" font-family="sans-serif" font-size="14" lengthAdjust="spacing" textLength="76" x="3666.5" y="312.0645">reset(): void</text><ellipse cx="3657.5" cy="325.4453" fill="#84BE84" rx="3" ry="3" style="stroke:#038048;stroke-width:1.0;"/><text fill="#000000" font-family="sans-serif" font-size="14" lengthAdjust="spacing" textLength="125" x="3666.5" y="329.6738">check_game(): bool</text><ellipse cx="3657.5" cy="343.0547" fill="#84BE84" rx="3" ry="3" style="stroke:#038048;stroke-width:1.0;"/><text fill="#000000" font-family="sans-serif" font-size="14" lengthAdjust="spacing" textLength="175" x="3666.5" y="347.2832">select(row: int, col: int): void</text><ellipse cx="3657.5" cy="360.6641" fill="#84BE84" rx="3" ry="3" style="stroke:#038048;stroke-width:1.0;"/><text fill="#000000" font-family="sans-serif" font-size="14" lengthAdjust="spacing" textLength="181" x="3666.5" y="364.8926">_move(row: int, col: int): bool</text><ellipse cx="3657.5" cy="378.2734" fill="#84BE84" rx="3" ry="3" style="stroke:#038048;stroke-width:1.0;"/><text fill="#000000" font-family="sans-serif" font-size="14" lengthAdjust="spacing" textLength="418" x="3666.5" y="382.502">remove(board: List[List[Piece]], piece: Piece, row: int, col: int): void</text><ellipse cx="3657.5" cy="395.8828" fill="#84BE84" rx="3" ry="3" style="stroke:#038048;stroke-width:1.0;"/><text fill="#000000" font-family="sans-serif" font-size="14" lengthAdjust="spacing" textLength="187" x="3666.5" y="400.1113">draw_available_moves(): void</text><ellipse cx="3657.5" cy="413.4922" fill="#84BE84" rx="3" ry="3" style="stroke:#038048;stroke-width:1.0;"/><text fill="#000000" font-family="sans-serif" font-size="14" lengthAdjust="spacing" textLength="125" x="3666.5" y="417.7207">show_winner(): void</text><ellipse cx="3657.5" cy="431.1016" fill="#84BE84" rx="3" ry="3" style="stroke:#038048;stroke-width:1.0;"/><text fill="#000000" font-family="sans-serif" font-size="14" lengthAdjust="spacing" textLength="203" x="3666.5" y="435.3301">show_promotion_choices(): void</text><ellipse cx="3657.5" cy="448.7109" fill="#84BE84" rx="3" ry="3" style="stroke:#038048;stroke-width:1.0;"/><text fill="#000000" font-family="sans-serif" font-size="14" lengthAdjust="spacing" textLength="223" x="3666.5" y="452.9395">handle_promotion(choice: str): void</text></g><!--class Piece--><g id="elem_Piece"><rect codeLine="29" fill="#F1F1F1" height="329.75" id="Piece" rx="2.5" ry="2.5" style="stroke:#181818;stroke-width:0.5;" width="821" x="3153" y="528.5"/><ellipse cx="3541.75" cy="544.5" fill="#ADD1B2" rx="11" ry="11" style="stroke:#181818;stroke-width:1.0;"/><path d="M3544.5156,540.375 Q3544.6719,540.1563 3544.8594,540.0469 Q3545.0469,539.9375 3545.2656,539.9375 Q3545.6406,539.9375 3545.875,540.2031 Q3546.1094,540.4531 3546.1094,541.0625 L3546.1094,542.5156 Q3546.1094,543.125 3545.875,543.3906 Q3545.6406,543.6563 3545.2656,543.6563 Q3544.9219,543.6563 3544.7188,543.4531 Q3544.5156,543.2656 3544.4063,542.75 Q3544.3594,542.3906 3544.1719,542.2031 Q3543.8438,541.8281 3543.2344,541.6094 Q3542.625,541.3906 3542,541.3906 Q3541.2344,541.3906 3540.5938,541.7188 Q3539.9688,542.0469 3539.4688,542.7969 Q3538.9844,543.5469 3538.9844,544.5781 L3538.9844,545.6719 Q3538.9844,546.9063 3539.875,547.7344 Q3540.7656,548.5469 3542.3594,548.5469 Q3543.2969,548.5469 3543.9531,548.2969 Q3544.3438,548.1406 3544.7656,547.7031 Q3545.0313,547.4375 3545.1719,547.3594 Q3545.3281,547.2813 3545.5313,547.2813 Q3545.8594,547.2813 3546.1094,547.5469 Q3546.375,547.7969 3546.375,548.1406 Q3546.375,548.4844 3546.0313,548.8906 Q3545.5313,549.4688 3544.7344,549.7969 Q3543.6563,550.25 3542.3594,550.25 Q3540.8438,550.25 3539.6406,549.625 Q3538.6563,549.125 3537.9688,548.0625 Q3537.2813,546.9844 3537.2813,545.7031 L3537.2813,544.5469 Q3537.2813,543.2188 3537.8906,542.0781 Q3538.5156,540.9219 3539.6094,540.3125 Q3540.7031,539.6875 3541.9375,539.6875 Q3542.6719,539.6875 3543.3125,539.8594 Q3543.9688,540.0156 3544.5156,540.375 Z " fill="#000000"/><text fill="#000000" font-family="sans-serif" font-size="14" lengthAdjust="spacing" textLength="35" x="3562.25" y="550.2285">Piece</text><line style="stroke:#181818;stroke-width:0.5;" x1="3154" x2="3973" y1="560.5" y2="560.5"/><rect fill="none" height="6" style="stroke:#C82930;stroke-width:1.0;" width="6" x="3161" y="571.8047"/><text fill="#000000" font-family="sans-serif" font-size="14" lengthAdjust="spacing" textLength="69" x="3173" y="579.0332">Square: int</text><rect fill="none" height="6" style="stroke:#C82930;stroke-width:1.0;" width="6" x="3161" y="589.4141"/><text fill="#000000" font-family="sans-serif" font-size="14" lengthAdjust="spacing" textLength="149" x="3173" y="596.6426">image: pygame.Surface</text><rect fill="none" height="6" style="stroke:#C82930;stroke-width:1.0;" width="6" x="3161" y="607.0234"/><text fill="#000000" font-family="sans-serif" font-size="14" lengthAdjust="spacing" textLength="144" x="3173" y="614.252">color: Tuple[int, int, int]</text><rect fill="none" height="6" style="stroke:#C82930;stroke-width:1.0;" width="6" x="3161" y="624.6328"/><text fill="#000000" font-family="sans-serif" font-size="14" lengthAdjust="spacing" textLength="45" x="3173" y="631.8613">row: int</text><rect fill="none" height="6" style="stroke:#C82930;stroke-width:1.0;" width="6" x="3161" y="642.2422"/><text fill="#000000" font-family="sans-serif" font-size="14" lengthAdjust="spacing" textLength="41" x="3173" y="649.4707">col: int</text><rect fill="none" height="6" style="stroke:#C82930;stroke-width:1.0;" width="6" x="3161" y="659.8516"/><text fill="#000000" font-family="sans-serif" font-size="14" lengthAdjust="spacing" textLength="51" x="3173" y="667.0801">type: str</text><rect fill="none" height="6" style="stroke:#C82930;stroke-width:1.0;" width="6" x="3161" y="677.4609"/><text fill="#000000" font-family="sans-serif" font-size="14" lengthAdjust="spacing" textLength="29" x="3173" y="684.6895">x: int</text><rect fill="none" height="6" style="stroke:#C82930;stroke-width:1.0;" width="6" x="3161" y="695.0703"/><text fill="#000000" font-family="sans-serif" font-size="14" lengthAdjust="spacing" textLength="30" x="3173" y="702.2988">y: int</text><rect fill="none" height="6" style="stroke:#C82930;stroke-width:1.0;" width="6" x="3161" y="712.6797"/><text fill="#000000" font-family="sans-serif" font-size="14" lengthAdjust="spacing" textLength="225" x="3173" y="719.9082">available_moves: List[Tuple[int, int]]</text><rect fill="none" height="6" style="stroke:#C82930;stroke-width:1.0;" width="6" x="3161" y="730.2891"/><text fill="#000000" font-family="sans-serif" font-size="14" lengthAdjust="spacing" textLength="217" x="3173" y="737.5176">capture_moves: List[Tuple[int, int]]</text><rect fill="none" height="6" style="stroke:#C82930;stroke-width:1.0;" width="6" x="3161" y="747.8984"/><text fill="#000000" font-family="sans-serif" font-size="14" lengthAdjust="spacing" textLength="188" x="3173" y="755.127">move_strategy: MoveStrategy</text><line style="stroke:#181818;stroke-width:0.5;" x1="3154" x2="3973" y1="762.2031" y2="762.2031"/><ellipse cx="3164" cy="776.5078" fill="#84BE84" rx="3" ry="3" style="stroke:#038048;stroke-width:1.0;"/><text fill="#000000" font-family="sans-serif" font-size="14" lengthAdjust="spacing" textLength="795" x="3173" y="780.7363">__init__(Square: int, image: pygame.Surface, color: Tuple[int, int, int], type: str, row: int, col: int, move_strategy: MoveStrategy)</text><ellipse cx="3164" cy="794.1172" fill="#84BE84" rx="3" ry="3" style="stroke:#038048;stroke-width:1.0;"/><text fill="#000000" font-family="sans-serif" font-size="14" lengthAdjust="spacing" textLength="214" x="3173" y="798.3457">piece_move(row: int, col: int): void</text><ellipse cx="3164" cy="811.7266" fill="#84BE84" rx="3" ry="3" style="stroke:#038048;stroke-width:1.0;"/><text fill="#000000" font-family="sans-serif" font-size="14" lengthAdjust="spacing" textLength="100" x="3173" y="815.9551">calc_pos(): void</text><ellipse cx="3164" cy="829.3359" fill="#84BE84" rx="3" ry="3" style="stroke:#038048;stroke-width:1.0;"/><text fill="#000000" font-family="sans-serif" font-size="14" lengthAdjust="spacing" textLength="188" x="3173" y="833.5645">clear_available_moves(): void</text><ellipse cx="3164" cy="846.9453" fill="#84BE84" rx="3" ry="3" style="stroke:#038048;stroke-width:1.0;"/><text fill="#000000" font-family="sans-serif" font-size="14" lengthAdjust="spacing" textLength="404" x="3173" y="851.1738">get_available_moves(Board: List[List[Piece]]): List[Tuple[int, int]]</text></g><!--class MoveStrategy--><g id="elem_MoveStrategy"><rect codeLine="48" fill="#F1F1F1" height="65.6094" id="MoveStrategy" rx="2.5" ry="2.5" style="stroke:#181818;stroke-width:0.5;" width="513" x="1383" y="927"/><ellipse cx="1591.75" cy="943" fill="#ADD1B2" rx="11" ry="11" style="stroke:#181818;stroke-width:1.0;"/><path d="M1594.5156,938.875 Q1594.6719,938.6563 1594.8594,938.5469 Q1595.0469,938.4375 1595.2656,938.4375 Q1595.6406,938.4375 1595.875,938.7031 Q1596.1094,938.9531 1596.1094,939.5625 L1596.1094,941.0156 Q1596.1094,941.625 1595.875,941.8906 Q1595.6406,942.1563 1595.2656,942.1563 Q1594.9219,942.1563 1594.7188,941.9531 Q1594.5156,941.7656 1594.4063,941.25 Q1594.3594,940.8906 1594.1719,940.7031 Q1593.8438,940.3281 1593.2344,940.1094 Q1592.625,939.8906 1592,939.8906 Q1591.2344,939.8906 1590.5938,940.2188 Q1589.9688,940.5469 1589.4688,941.2969 Q1588.9844,942.0469 1588.9844,943.0781 L1588.9844,944.1719 Q1588.9844,945.4063 1589.875,946.2344 Q1590.7656,947.0469 1592.3594,947.0469 Q1593.2969,947.0469 1593.9531,946.7969 Q1594.3438,946.6406 1594.7656,946.2031 Q1595.0313,945.9375 1595.1719,945.8594 Q1595.3281,945.7813 1595.5313,945.7813 Q1595.8594,945.7813 1596.1094,946.0469 Q1596.375,946.2969 1596.375,946.6406 Q1596.375,946.9844 1596.0313,947.3906 Q1595.5313,947.9688 1594.7344,948.2969 Q1593.6563,948.75 1592.3594,948.75 Q1590.8438,948.75 1589.6406,948.125 Q1588.6563,947.625 1587.9688,946.5625 Q1587.2813,945.4844 1587.2813,944.2031 L1587.2813,943.0469 Q1587.2813,941.7188 1587.8906,940.5781 Q1588.5156,939.4219 1589.6094,938.8125 Q1590.7031,938.1875 1591.9375,938.1875 Q1592.6719,938.1875 1593.3125,938.3594 Q1593.9688,938.5156 1594.5156,938.875 Z " fill="#000000"/><text fill="#000000" font-family="sans-serif" font-size="14" lengthAdjust="spacing" textLength="87" x="1612.25" y="948.7285">MoveStrategy</text><line style="stroke:#181818;stroke-width:0.5;" x1="1384" x2="1895" y1="959" y2="959"/><line style="stroke:#181818;stroke-width:0.5;" x1="1384" x2="1895" y1="967" y2="967"/><ellipse cx="1394" cy="981.3047" fill="#84BE84" rx="3" ry="3" style="stroke:#038048;stroke-width:1.0;"/><text fill="#000000" font-family="sans-serif" font-size="14" font-style="italic" lengthAdjust="spacing" textLength="487" x="1403" y="985.5332">get_available_moves(piece: Piece, Board: List[List[Piece]]): List[Tuple[int, int]]</text></g><!--class PawnMoveStrategy--><g id="elem_PawnMoveStrategy"><rect codeLine="52" fill="#F1F1F1" height="65.6094" id="PawnMoveStrategy" rx="2.5" ry="2.5" style="stroke:#181818;stroke-width:0.5;" width="515" x="7" y="1053"/><ellipse cx="199.75" cy="1069" fill="#ADD1B2" rx="11" ry="11" style="stroke:#181818;stroke-width:1.0;"/><path d="M202.5156,1064.875 Q202.6719,1064.6563 202.8594,1064.5469 Q203.0469,1064.4375 203.2656,1064.4375 Q203.6406,1064.4375 203.875,1064.7031 Q204.1094,1064.9531 204.1094,1065.5625 L204.1094,1067.0156 Q204.1094,1067.625 203.875,1067.8906 Q203.6406,1068.1563 203.2656,1068.1563 Q202.9219,1068.1563 202.7188,1067.9531 Q202.5156,1067.7656 202.4063,1067.25 Q202.3594,1066.8906 202.1719,1066.7031 Q201.8438,1066.3281 201.2344,1066.1094 Q200.625,1065.8906 200,1065.8906 Q199.2344,1065.8906 198.5938,1066.2188 Q197.9688,1066.5469 197.4688,1067.2969 Q196.9844,1068.0469 196.9844,1069.0781 L196.9844,1070.1719 Q196.9844,1071.4063 197.875,1072.2344 Q198.7656,1073.0469 200.3594,1073.0469 Q201.2969,1073.0469 201.9531,1072.7969 Q202.3438,1072.6406 202.7656,1072.2031 Q203.0313,1071.9375 203.1719,1071.8594 Q203.3281,1071.7813 203.5313,1071.7813 Q203.8594,1071.7813 204.1094,1072.0469 Q204.375,1072.2969 204.375,1072.6406 Q204.375,1072.9844 204.0313,1073.3906 Q203.5313,1073.9688 202.7344,1074.2969 Q201.6563,1074.75 200.3594,1074.75 Q198.8438,1074.75 197.6406,1074.125 Q196.6563,1073.625 195.9688,1072.5625 Q195.2813,1071.4844 195.2813,1070.2031 L195.2813,1069.0469 Q195.2813,1067.7188 195.8906,1066.5781 Q196.5156,1065.4219 197.6094,1064.8125 Q198.7031,1064.1875 199.9375,1064.1875 Q200.6719,1064.1875 201.3125,1064.3594 Q201.9688,1064.5156 202.5156,1064.875 Z " fill="#000000"/><text fill="#000000" font-family="sans-serif" font-size="14" lengthAdjust="spacing" textLength="121" x="220.25" y="1074.7285">PawnMoveStrategy</text><line style="stroke:#181818;stroke-width:0.5;" x1="8" x2="521" y1="1085" y2="1085"/><line style="stroke:#181818;stroke-width:0.5;" x1="8" x2="521" y1="1093" y2="1093"/><ellipse cx="18" cy="1107.3047" fill="#84BE84" rx="3" ry="3" style="stroke:#038048;stroke-width:1.0;"/><text fill="#000000" font-family="sans-serif" font-size="14" lengthAdjust="spacing" textLength="489" x="27" y="1111.5332">get_available_moves(piece: Piece, Board: List[List[Piece]]): List[Tuple[int, int]]</text></g><!--class RookMoveStrategy--><g id="elem_RookMoveStrategy"><rect codeLine="56" fill="#F1F1F1" height="65.6094" id="RookMoveStrategy" rx="2.5" ry="2.5" style="stroke:#181818;stroke-width:0.5;" width="515" x="557" y="1053"/><ellipse cx="750.25" cy="1069" fill="#ADD1B2" rx="11" ry="11" style="stroke:#181818;stroke-width:1.0;"/><path d="M753.0156,1064.875 Q753.1719,1064.6563 753.3594,1064.5469 Q753.5469,1064.4375 753.7656,1064.4375 Q754.1406,1064.4375 754.375,1064.7031 Q754.6094,1064.9531 754.6094,1065.5625 L754.6094,1067.0156 Q754.6094,1067.625 754.375,1067.8906 Q754.1406,1068.1563 753.7656,1068.1563 Q753.4219,1068.1563 753.2188,1067.9531 Q753.0156,1067.7656 752.9063,1067.25 Q752.8594,1066.8906 752.6719,1066.7031 Q752.3438,1066.3281 751.7344,1066.1094 Q751.125,1065.8906 750.5,1065.8906 Q749.7344,1065.8906 749.0938,1066.2188 Q748.4688,1066.5469 747.9688,1067.2969 Q747.4844,1068.0469 747.4844,1069.0781 L747.4844,1070.1719 Q747.4844,1071.4063 748.375,1072.2344 Q749.2656,1073.0469 750.8594,1073.0469 Q751.7969,1073.0469 752.4531,1072.7969 Q752.8438,1072.6406 753.2656,1072.2031 Q753.5313,1071.9375 753.6719,1071.8594 Q753.8281,1071.7813 754.0313,1071.7813 Q754.3594,1071.7813 754.6094,1072.0469 Q754.875,1072.2969 754.875,1072.6406 Q754.875,1072.9844 754.5313,1073.3906 Q754.0313,1073.9688 753.2344,1074.2969 Q752.1563,1074.75 750.8594,1074.75 Q749.3438,1074.75 748.1406,1074.125 Q747.1563,1073.625 746.4688,1072.5625 Q745.7813,1071.4844 745.7813,1070.2031 L745.7813,1069.0469 Q745.7813,1067.7188 746.3906,1066.5781 Q747.0156,1065.4219 748.1094,1064.8125 Q749.2031,1064.1875 750.4375,1064.1875 Q751.1719,1064.1875 751.8125,1064.3594 Q752.4688,1064.5156 753.0156,1064.875 Z " fill="#000000"/><text fill="#000000" font-family="sans-serif" font-size="14" lengthAdjust="spacing" textLength="120" x="770.75" y="1074.7285">RookMoveStrategy</text><line style="stroke:#181818;stroke-width:0.5;" x1="558" x2="1071" y1="1085" y2="1085"/><line style="stroke:#181818;stroke-width:0.5;" x1="558" x2="1071" y1="1093" y2="1093"/><ellipse cx="568" cy="1107.3047" fill="#84BE84" rx="3" ry="3" style="stroke:#038048;stroke-width:1.0;"/><text fill="#000000" font-family="sans-serif" font-size="14" lengthAdjust="spacing" textLength="489" x="577" y="1111.5332">get_available_moves(piece: Piece, Board: List[List[Piece]]): List[Tuple[int, int]]</text></g><!--class BishopMoveStrategy--><g id="elem_BishopMoveStrategy"><rect codeLine="60" fill="#F1F1F1" height="65.6094" id="BishopMoveStrategy" rx="2.5" ry="2.5" style="stroke:#181818;stroke-width:0.5;" width="515" x="1107" y="1053"/><ellipse cx="1295.25" cy="1069" fill="#ADD1B2" rx="11" ry="11" style="stroke:#181818;stroke-width:1.0;"/><path d="M1298.0156,1064.875 Q1298.1719,1064.6563 1298.3594,1064.5469 Q1298.5469,1064.4375 1298.7656,1064.4375 Q1299.1406,1064.4375 1299.375,1064.7031 Q1299.6094,1064.9531 1299.6094,1065.5625 L1299.6094,1067.0156 Q1299.6094,1067.625 1299.375,1067.8906 Q1299.1406,1068.1563 1298.7656,1068.1563 Q1298.4219,1068.1563 1298.2188,1067.9531 Q1298.0156,1067.7656 1297.9063,1067.25 Q1297.8594,1066.8906 1297.6719,1066.7031 Q1297.3438,1066.3281 1296.7344,1066.1094 Q1296.125,1065.8906 1295.5,1065.8906 Q1294.7344,1065.8906 1294.0938,1066.2188 Q1293.4688,1066.5469 1292.9688,1067.2969 Q1292.4844,1068.0469 1292.4844,1069.0781 L1292.4844,1070.1719 Q1292.4844,1071.4063 1293.375,1072.2344 Q1294.2656,1073.0469 1295.8594,1073.0469 Q1296.7969,1073.0469 1297.4531,1072.7969 Q1297.8438,1072.6406 1298.2656,1072.2031 Q1298.5313,1071.9375 1298.6719,1071.8594 Q1298.8281,1071.7813 1299.0313,1071.7813 Q1299.3594,1071.7813 1299.6094,1072.0469 Q1299.875,1072.2969 1299.875,1072.6406 Q1299.875,1072.9844 1299.5313,1073.3906 Q1299.0313,1073.9688 1298.2344,1074.2969 Q1297.1563,1074.75 1295.8594,1074.75 Q1294.3438,1074.75 1293.1406,1074.125 Q1292.1563,1073.625 1291.4688,1072.5625 Q1290.7813,1071.4844 1290.7813,1070.2031 L1290.7813,1069.0469 Q1290.7813,1067.7188 1291.3906,1066.5781 Q1292.0156,1065.4219 1293.1094,1064.8125 Q1294.2031,1064.1875 1295.4375,1064.1875 Q1296.1719,1064.1875 1296.8125,1064.3594 Q1297.4688,1064.5156 1298.0156,1064.875 Z " fill="#000000"/><text fill="#000000" font-family="sans-serif" font-size="14" lengthAdjust="spacing" textLength="130" x="1315.75" y="1074.7285">BishopMoveStrategy</text><line style="stroke:#181818;stroke-width:0.5;" x1="1108" x2="1621" y1="1085" y2="1085"/><line style="stroke:#181818;stroke-width:0.5;" x1="1108" x2="1621" y1="1093" y2="1093"/><ellipse cx="1118" cy="1107.3047" fill="#84BE84" rx="3" ry="3" style="stroke:#038048;stroke-width:1.0;"/><text fill="#000000" font-family="sans-serif" font-size="14" lengthAdjust="spacing" textLength="489" x="1127" y="1111.5332">get_available_moves(piece: Piece, Board: List[List[Piece]]): List[Tuple[int, int]]</text></g><!--class KnightMoveStrategy--><g id="elem_KnightMoveStrategy"><rect codeLine="64" fill="#F1F1F1" height="65.6094" id="KnightMoveStrategy" rx="2.5" ry="2.5" style="stroke:#181818;stroke-width:0.5;" width="515" x="1657" y="1053"/><ellipse cx="1846.75" cy="1069" fill="#ADD1B2" rx="11" ry="11" style="stroke:#181818;stroke-width:1.0;"/><path d="M1849.5156,1064.875 Q1849.6719,1064.6563 1849.8594,1064.5469 Q1850.0469,1064.4375 1850.2656,1064.4375 Q1850.6406,1064.4375 1850.875,1064.7031 Q1851.1094,1064.9531 1851.1094,1065.5625 L1851.1094,1067.0156 Q1851.1094,1067.625 1850.875,1067.8906 Q1850.6406,1068.1563 1850.2656,1068.1563 Q1849.9219,1068.1563 1849.7188,1067.9531 Q1849.5156,1067.7656 1849.4063,1067.25 Q1849.3594,1066.8906 1849.1719,1066.7031 Q1848.8438,1066.3281 1848.2344,1066.1094 Q1847.625,1065.8906 1847,1065.8906 Q1846.2344,1065.8906 1845.5938,1066.2188 Q1844.9688,1066.5469 1844.4688,1067.2969 Q1843.9844,1068.0469 1843.9844,1069.0781 L1843.9844,1070.1719 Q1843.9844,1071.4063 1844.875,1072.2344 Q1845.7656,1073.0469 1847.3594,1073.0469 Q1848.2969,1073.0469 1848.9531,1072.7969 Q1849.3438,1072.6406 1849.7656,1072.2031 Q1850.0313,1071.9375 1850.1719,1071.8594 Q1850.3281,1071.7813 1850.5313,1071.7813 Q1850.8594,1071.7813 1851.1094,1072.0469 Q1851.375,1072.2969 1851.375,1072.6406 Q1851.375,1072.9844 1851.0313,1073.3906 Q1850.5313,1073.9688 1849.7344,1074.2969 Q1848.6563,1074.75 1847.3594,1074.75 Q1845.8438,1074.75 1844.6406,1074.125 Q1843.6563,1073.625 1842.9688,1072.5625 Q1842.2813,1071.4844 1842.2813,1070.2031 L1842.2813,1069.0469 Q1842.2813,1067.7188 1842.8906,1066.5781 Q1843.5156,1065.4219 1844.6094,1064.8125 Q1845.7031,1064.1875 1846.9375,1064.1875 Q1847.6719,1064.1875 1848.3125,1064.3594 Q1848.9688,1064.5156 1849.5156,1064.875 Z " fill="#000000"/><text fill="#000000" font-family="sans-serif" font-size="14" lengthAdjust="spacing" textLength="127" x="1867.25" y="1074.7285">KnightMoveStrategy</text><line style="stroke:#181818;stroke-width:0.5;" x1="1658" x2="2171" y1="1085" y2="1085"/><line style="stroke:#181818;stroke-width:0.5;" x1="1658" x2="2171" y1="1093" y2="1093"/><ellipse cx="1668" cy="1107.3047" fill="#84BE84" rx="3" ry="3" style="stroke:#038048;stroke-width:1.0;"/><text fill="#000000" font-family="sans-serif" font-size="14" lengthAdjust="spacing" textLength="489" x="1677" y="1111.5332">get_available_moves(piece: Piece, Board: List[List[Piece]]): List[Tuple[int, int]]</text></g><!--class QueenMoveStrategy--><g id="elem_QueenMoveStrategy"><rect codeLine="68" fill="#F1F1F1" height="65.6094" id="QueenMoveStrategy" rx="2.5" ry="2.5" style="stroke:#181818;stroke-width:0.5;" width="515" x="2207" y="1053"/><ellipse cx="2395.25" cy="1069" fill="#ADD1B2" rx="11" ry="11" style="stroke:#181818;stroke-width:1.0;"/><path d="M2398.0156,1064.875 Q2398.1719,1064.6563 2398.3594,1064.5469 Q2398.5469,1064.4375 2398.7656,1064.4375 Q2399.1406,1064.4375 2399.375,1064.7031 Q2399.6094,1064.9531 2399.6094,1065.5625 L2399.6094,1067.0156 Q2399.6094,1067.625 2399.375,1067.8906 Q2399.1406,1068.1563 2398.7656,1068.1563 Q2398.4219,1068.1563 2398.2188,1067.9531 Q2398.0156,1067.7656 2397.9063,1067.25 Q2397.8594,1066.8906 2397.6719,1066.7031 Q2397.3438,1066.3281 2396.7344,1066.1094 Q2396.125,1065.8906 2395.5,1065.8906 Q2394.7344,1065.8906 2394.0938,1066.2188 Q2393.4688,1066.5469 2392.9688,1067.2969 Q2392.4844,1068.0469 2392.4844,1069.0781 L2392.4844,1070.1719 Q2392.4844,1071.4063 2393.375,1072.2344 Q2394.2656,1073.0469 2395.8594,1073.0469 Q2396.7969,1073.0469 2397.4531,1072.7969 Q2397.8438,1072.6406 2398.2656,1072.2031 Q2398.5313,1071.9375 2398.6719,1071.8594 Q2398.8281,1071.7813 2399.0313,1071.7813 Q2399.3594,1071.7813 2399.6094,1072.0469 Q2399.875,1072.2969 2399.875,1072.6406 Q2399.875,1072.9844 2399.5313,1073.3906 Q2399.0313,1073.9688 2398.2344,1074.2969 Q2397.1563,1074.75 2395.8594,1074.75 Q2394.3438,1074.75 2393.1406,1074.125 Q2392.1563,1073.625 2391.4688,1072.5625 Q2390.7813,1071.4844 2390.7813,1070.2031 L2390.7813,1069.0469 Q2390.7813,1067.7188 2391.3906,1066.5781 Q2392.0156,1065.4219 2393.1094,1064.8125 Q2394.2031,1064.1875 2395.4375,1064.1875 Q2396.1719,1064.1875 2396.8125,1064.3594 Q2397.4688,1064.5156 2398.0156,1064.875 Z " fill="#000000"/><text fill="#000000" font-family="sans-serif" font-size="14" lengthAdjust="spacing" textLength="130" x="2415.75" y="1074.7285">QueenMoveStrategy</text><line style="stroke:#181818;stroke-width:0.5;" x1="2208" x2="2721" y1="1085" y2="1085"/><line style="stroke:#181818;stroke-width:0.5;" x1="2208" x2="2721" y1="1093" y2="1093"/><ellipse cx="2218" cy="1107.3047" fill="#84BE84" rx="3" ry="3" style="stroke:#038048;stroke-width:1.0;"/><text fill="#000000" font-family="sans-serif" font-size="14" lengthAdjust="spacing" textLength="489" x="2227" y="1111.5332">get_available_moves(piece: Piece, Board: List[List[Piece]]): List[Tuple[int, int]]</text></g><!--class KingMoveStrategy--><g id="elem_KingMoveStrategy"><rect codeLine="72" fill="#F1F1F1" height="65.6094" id="KingMoveStrategy" rx="2.5" ry="2.5" style="stroke:#181818;stroke-width:0.5;" width="515" x="2757" y="1053"/><ellipse cx="2952.75" cy="1069" fill="#ADD1B2" rx="11" ry="11" style="stroke:#181818;stroke-width:1.0;"/><path d="M2955.5156,1064.875 Q2955.6719,1064.6563 2955.8594,1064.5469 Q2956.0469,1064.4375 2956.2656,1064.4375 Q2956.6406,1064.4375 2956.875,1064.7031 Q2957.1094,1064.9531 2957.1094,1065.5625 L2957.1094,1067.0156 Q2957.1094,1067.625 2956.875,1067.8906 Q2956.6406,1068.1563 2956.2656,1068.1563 Q2955.9219,1068.1563 2955.7188,1067.9531 Q2955.5156,1067.7656 2955.4063,1067.25 Q2955.3594,1066.8906 2955.1719,1066.7031 Q2954.8438,1066.3281 2954.2344,1066.1094 Q2953.625,1065.8906 2953,1065.8906 Q2952.2344,1065.8906 2951.5938,1066.2188 Q2950.9688,1066.5469 2950.4688,1067.2969 Q2949.9844,1068.0469 2949.9844,1069.0781 L2949.9844,1070.1719 Q2949.9844,1071.4063 2950.875,1072.2344 Q2951.7656,1073.0469 2953.3594,1073.0469 Q2954.2969,1073.0469 2954.9531,1072.7969 Q2955.3438,1072.6406 2955.7656,1072.2031 Q2956.0313,1071.9375 2956.1719,1071.8594 Q2956.3281,1071.7813 2956.5313,1071.7813 Q2956.8594,1071.7813 2957.1094,1072.0469 Q2957.375,1072.2969 2957.375,1072.6406 Q2957.375,1072.9844 2957.0313,1073.3906 Q2956.5313,1073.9688 2955.7344,1074.2969 Q2954.6563,1074.75 2953.3594,1074.75 Q2951.8438,1074.75 2950.6406,1074.125 Q2949.6563,1073.625 2948.9688,1072.5625 Q2948.2813,1071.4844 2948.2813,1070.2031 L2948.2813,1069.0469 Q2948.2813,1067.7188 2948.8906,1066.5781 Q2949.5156,1065.4219 2950.6094,1064.8125 Q2951.7031,1064.1875 2952.9375,1064.1875 Q2953.6719,1064.1875 2954.3125,1064.3594 Q2954.9688,1064.5156 2955.5156,1064.875 Z " fill="#000000"/><text fill="#000000" font-family="sans-serif" font-size="14" lengthAdjust="spacing" textLength="115" x="2973.25" y="1074.7285">KingMoveStrategy</text><line style="stroke:#181818;stroke-width:0.5;" x1="2758" x2="3271" y1="1085" y2="1085"/><line style="stroke:#181818;stroke-width:0.5;" x1="2758" x2="3271" y1="1093" y2="1093"/><ellipse cx="2768" cy="1107.3047" fill="#84BE84" rx="3" ry="3" style="stroke:#038048;stroke-width:1.0;"/><text fill="#000000" font-family="sans-serif" font-size="14" lengthAdjust="spacing" textLength="489" x="2777" y="1111.5332">get_available_moves(piece: Piece, Board: List[List[Piece]]): List[Tuple[int, int]]</text></g><!--class Pawn--><g id="elem_Pawn"><rect codeLine="76" fill="#F1F1F1" height="65.6094" id="Pawn" rx="2.5" ry="2.5" style="stroke:#181818;stroke-width:0.5;" width="625" x="1931" y="927"/><ellipse cx="2222.25" cy="943" fill="#ADD1B2" rx="11" ry="11" style="stroke:#181818;stroke-width:1.0;"/><path d="M2225.0156,938.875 Q2225.1719,938.6563 2225.3594,938.5469 Q2225.5469,938.4375 2225.7656,938.4375 Q2226.1406,938.4375 2226.375,938.7031 Q2226.6094,938.9531 2226.6094,939.5625 L2226.6094,941.0156 Q2226.6094,941.625 2226.375,941.8906 Q2226.1406,942.1563 2225.7656,942.1563 Q2225.4219,942.1563 2225.2188,941.9531 Q2225.0156,941.7656 2224.9063,941.25 Q2224.8594,940.8906 2224.6719,940.7031 Q2224.3438,940.3281 2223.7344,940.1094 Q2223.125,939.8906 2222.5,939.8906 Q2221.7344,939.8906 2221.0938,940.2188 Q2220.4688,940.5469 2219.9688,941.2969 Q2219.4844,942.0469 2219.4844,943.0781 L2219.4844,944.1719 Q2219.4844,945.4063 2220.375,946.2344 Q2221.2656,947.0469 2222.8594,947.0469 Q2223.7969,947.0469 2224.4531,946.7969 Q2224.8438,946.6406 2225.2656,946.2031 Q2225.5313,945.9375 2225.6719,945.8594 Q2225.8281,945.7813 2226.0313,945.7813 Q2226.3594,945.7813 2226.6094,946.0469 Q2226.875,946.2969 2226.875,946.6406 Q2226.875,946.9844 2226.5313,947.3906 Q2226.0313,947.9688 2225.2344,948.2969 Q2224.1563,948.75 2222.8594,948.75 Q2221.3438,948.75 2220.1406,948.125 Q2219.1563,947.625 2218.4688,946.5625 Q2217.7813,945.4844 2217.7813,944.2031 L2217.7813,943.0469 Q2217.7813,941.7188 2218.3906,940.5781 Q2219.0156,939.4219 2220.1094,938.8125 Q2221.2031,938.1875 2222.4375,938.1875 Q2223.1719,938.1875 2223.8125,938.3594 Q2224.4688,938.5156 2225.0156,938.875 Z " fill="#000000"/><text fill="#000000" font-family="sans-serif" font-size="14" lengthAdjust="spacing" textLength="34" x="2242.75" y="948.7285">Pawn</text><line style="stroke:#181818;stroke-width:0.5;" x1="1932" x2="2555" y1="959" y2="959"/><line style="stroke:#181818;stroke-width:0.5;" x1="1932" x2="2555" y1="967" y2="967"/><ellipse cx="1942" cy="981.3047" fill="#84BE84" rx="3" ry="3" style="stroke:#038048;stroke-width:1.0;"/><text fill="#000000" font-family="sans-serif" font-size="14" lengthAdjust="spacing" textLength="599" x="1951" y="985.5332">__init__(Square: int, image: pygame.Surface, color: Tuple[int, int, int], type: str, row: int, col: int)</text></g><!--class Rook--><g id="elem_Rook"><rect codeLine="80" fill="#F1F1F1" height="65.6094" id="Rook" rx="2.5" ry="2.5" style="stroke:#181818;stroke-width:0.5;" width="625" x="2591" y="927"/><ellipse cx="2882.75" cy="943" fill="#ADD1B2" rx="11" ry="11" style="stroke:#181818;stroke-width:1.0;"/><path d="M2885.5156,938.875 Q2885.6719,938.6563 2885.8594,938.5469 Q2886.0469,938.4375 2886.2656,938.4375 Q2886.6406,938.4375 2886.875,938.7031 Q2887.1094,938.9531 2887.1094,939.5625 L2887.1094,941.0156 Q2887.1094,941.625 2886.875,941.8906 Q2886.6406,942.1563 2886.2656,942.1563 Q2885.9219,942.1563 2885.7188,941.9531 Q2885.5156,941.7656 2885.4063,941.25 Q2885.3594,940.8906 2885.1719,940.7031 Q2884.8438,940.3281 2884.2344,940.1094 Q2883.625,939.8906 2883,939.8906 Q2882.2344,939.8906 2881.5938,940.2188 Q2880.9688,940.5469 2880.4688,941.2969 Q2879.9844,942.0469 2879.9844,943.0781 L2879.9844,944.1719 Q2879.9844,945.4063 2880.875,946.2344 Q2881.7656,947.0469 2883.3594,947.0469 Q2884.2969,947.0469 2884.9531,946.7969 Q2885.3438,946.6406 2885.7656,946.2031 Q2886.0313,945.9375 2886.1719,945.8594 Q2886.3281,945.7813 2886.5313,945.7813 Q2886.8594,945.7813 2887.1094,946.0469 Q2887.375,946.2969 2887.375,946.6406 Q2887.375,946.9844 2887.0313,947.3906 Q2886.5313,947.9688 2885.7344,948.2969 Q2884.6563,948.75 2883.3594,948.75 Q2881.8438,948.75 2880.6406,948.125 Q2879.6563,947.625 2878.9688,946.5625 Q2878.2813,945.4844 2878.2813,944.2031 L2878.2813,943.0469 Q2878.2813,941.7188 2878.8906,940.5781 Q2879.5156,939.4219 2880.6094,938.8125 Q2881.7031,938.1875 2882.9375,938.1875 Q2883.6719,938.1875 2884.3125,938.3594 Q2884.9688,938.5156 2885.5156,938.875 Z " fill="#000000"/><text fill="#000000" font-family="sans-serif" font-size="14" lengthAdjust="spacing" textLength="33" x="2903.25" y="948.7285">Rook</text><line style="stroke:#181818;stroke-width:0.5;" x1="2592" x2="3215" y1="959" y2="959"/><line style="stroke:#181818;stroke-width:0.5;" x1="2592" x2="3215" y1="967" y2="967"/><ellipse cx="2602" cy="981.3047" fill="#84BE84" rx="3" ry="3" style="stroke:#038048;stroke-width:1.0;"/><text fill="#000000" font-family="sans-serif" font-size="14" lengthAdjust="spacing" textLength="599" x="2611" y="985.5332">__init__(Square: int, image: pygame.Surface, color: Tuple[int, int, int], type: str, row: int, col: int)</text></g><!--class Bishop--><g id="elem_Bishop"><rect codeLine="84" fill="#F1F1F1" height="65.6094" id="Bishop" rx="2.5" ry="2.5" style="stroke:#181818;stroke-width:0.5;" width="625" x="3251" y="927"/><ellipse cx="3537.75" cy="943" fill="#ADD1B2" rx="11" ry="11" style="stroke:#181818;stroke-width:1.0;"/><path d="M3540.5156,938.875 Q3540.6719,938.6563 3540.8594,938.5469 Q3541.0469,938.4375 3541.2656,938.4375 Q3541.6406,938.4375 3541.875,938.7031 Q3542.1094,938.9531 3542.1094,939.5625 L3542.1094,941.0156 Q3542.1094,941.625 3541.875,941.8906 Q3541.6406,942.1563 3541.2656,942.1563 Q3540.9219,942.1563 3540.7188,941.9531 Q3540.5156,941.7656 3540.4063,941.25 Q3540.3594,940.8906 3540.1719,940.7031 Q3539.8438,940.3281 3539.2344,940.1094 Q3538.625,939.8906 3538,939.8906 Q3537.2344,939.8906 3536.5938,940.2188 Q3535.9688,940.5469 3535.4688,941.2969 Q3534.9844,942.0469 3534.9844,943.0781 L3534.9844,944.1719 Q3534.9844,945.4063 3535.875,946.2344 Q3536.7656,947.0469 3538.3594,947.0469 Q3539.2969,947.0469 3539.9531,946.7969 Q3540.3438,946.6406 3540.7656,946.2031 Q3541.0313,945.9375 3541.1719,945.8594 Q3541.3281,945.7813 3541.5313,945.7813 Q3541.8594,945.7813 3542.1094,946.0469 Q3542.375,946.2969 3542.375,946.6406 Q3542.375,946.9844 3542.0313,947.3906 Q3541.5313,947.9688 3540.7344,948.2969 Q3539.6563,948.75 3538.3594,948.75 Q3536.8438,948.75 3535.6406,948.125 Q3534.6563,947.625 3533.9688,946.5625 Q3533.2813,945.4844 3533.2813,944.2031 L3533.2813,943.0469 Q3533.2813,941.7188 3533.8906,940.5781 Q3534.5156,939.4219 3535.6094,938.8125 Q3536.7031,938.1875 3537.9375,938.1875 Q3538.6719,938.1875 3539.3125,938.3594 Q3539.9688,938.5156 3540.5156,938.875 Z " fill="#000000"/><text fill="#000000" font-family="sans-serif" font-size="14" lengthAdjust="spacing" textLength="43" x="3558.25" y="948.7285">Bishop</text><line style="stroke:#181818;stroke-width:0.5;" x1="3252" x2="3875" y1="959" y2="959"/><line style="stroke:#181818;stroke-width:0.5;" x1="3252" x2="3875" y1="967" y2="967"/><ellipse cx="3262" cy="981.3047" fill="#84BE84" rx="3" ry="3" style="stroke:#038048;stroke-width:1.0;"/><text fill="#000000" font-family="sans-serif" font-size="14" lengthAdjust="spacing" textLength="599" x="3271" y="985.5332">__init__(Square: int, image: pygame.Surface, color: Tuple[int, int, int], type: str, row: int, col: int)</text></g><!--class Knight--><g id="elem_Knight"><rect codeLine="88" fill="#F1F1F1" height="65.6094" id="Knight" rx="2.5" ry="2.5" style="stroke:#181818;stroke-width:0.5;" width="625" x="3911" y="927"/><ellipse cx="4199.25" cy="943" fill="#ADD1B2" rx="11" ry="11" style="stroke:#181818;stroke-width:1.0;"/><path d="M4202.0156,938.875 Q4202.1719,938.6563 4202.3594,938.5469 Q4202.5469,938.4375 4202.7656,938.4375 Q4203.1406,938.4375 4203.375,938.7031 Q4203.6094,938.9531 4203.6094,939.5625 L4203.6094,941.0156 Q4203.6094,941.625 4203.375,941.8906 Q4203.1406,942.1563 4202.7656,942.1563 Q4202.4219,942.1563 4202.2188,941.9531 Q4202.0156,941.7656 4201.9063,941.25 Q4201.8594,940.8906 4201.6719,940.7031 Q4201.3438,940.3281 4200.7344,940.1094 Q4200.125,939.8906 4199.5,939.8906 Q4198.7344,939.8906 4198.0938,940.2188 Q4197.4688,940.5469 4196.9688,941.2969 Q4196.4844,942.0469 4196.4844,943.0781 L4196.4844,944.1719 Q4196.4844,945.4063 4197.375,946.2344 Q4198.2656,947.0469 4199.8594,947.0469 Q4200.7969,947.0469 4201.4531,946.7969 Q4201.8438,946.6406 4202.2656,946.2031 Q4202.5313,945.9375 4202.6719,945.8594 Q4202.8281,945.7813 4203.0313,945.7813 Q4203.3594,945.7813 4203.6094,946.0469 Q4203.875,946.2969 4203.875,946.6406 Q4203.875,946.9844 4203.5313,947.3906 Q4203.0313,947.9688 4202.2344,948.2969 Q4201.1563,948.75 4199.8594,948.75 Q4198.3438,948.75 4197.1406,948.125 Q4196.1563,947.625 4195.4688,946.5625 Q4194.7813,945.4844 4194.7813,944.2031 L4194.7813,943.0469 Q4194.7813,941.7188 4195.3906,940.5781 Q4196.0156,939.4219 4197.1094,938.8125 Q4198.2031,938.1875 4199.4375,938.1875 Q4200.1719,938.1875 4200.8125,938.3594 Q4201.4688,938.5156 4202.0156,938.875 Z " fill="#000000"/><text fill="#000000" font-family="sans-serif" font-size="14" lengthAdjust="spacing" textLength="40" x="4219.75" y="948.7285">Knight</text><line style="stroke:#181818;stroke-width:0.5;" x1="3912" x2="4535" y1="959" y2="959"/><line style="stroke:#181818;stroke-width:0.5;" x1="3912" x2="4535" y1="967" y2="967"/><ellipse cx="3922" cy="981.3047" fill="#84BE84" rx="3" ry="3" style="stroke:#038048;stroke-width:1.0;"/><text fill="#000000" font-family="sans-serif" font-size="14" lengthAdjust="spacing" textLength="599" x="3931" y="985.5332">__init__(Square: int, image: pygame.Surface, color: Tuple[int, int, int], type: str, row: int, col: int)</text></g><!--class Queen--><g id="elem_Queen"><rect codeLine="92" fill="#F1F1F1" height="65.6094" id="Queen" rx="2.5" ry="2.5" style="stroke:#181818;stroke-width:0.5;" width="625" x="4571" y="927"/><ellipse cx="4857.75" cy="943" fill="#ADD1B2" rx="11" ry="11" style="stroke:#181818;stroke-width:1.0;"/><path d="M4860.5156,938.875 Q4860.6719,938.6563 4860.8594,938.5469 Q4861.0469,938.4375 4861.2656,938.4375 Q4861.6406,938.4375 4861.875,938.7031 Q4862.1094,938.9531 4862.1094,939.5625 L4862.1094,941.0156 Q4862.1094,941.625 4861.875,941.8906 Q4861.6406,942.1563 4861.2656,942.1563 Q4860.9219,942.1563 4860.7188,941.9531 Q4860.5156,941.7656 4860.4063,941.25 Q4860.3594,940.8906 4860.1719,940.7031 Q4859.8438,940.3281 4859.2344,940.1094 Q4858.625,939.8906 4858,939.8906 Q4857.2344,939.8906 4856.5938,940.2188 Q4855.9688,940.5469 4855.4688,941.2969 Q4854.9844,942.0469 4854.9844,943.0781 L4854.9844,944.1719 Q4854.9844,945.4063 4855.875,946.2344 Q4856.7656,947.0469 4858.3594,947.0469 Q4859.2969,947.0469 4859.9531,946.7969 Q4860.3438,946.6406 4860.7656,946.2031 Q4861.0313,945.9375 4861.1719,945.8594 Q4861.3281,945.7813 4861.5313,945.7813 Q4861.8594,945.7813 4862.1094,946.0469 Q4862.375,946.2969 4862.375,946.6406 Q4862.375,946.9844 4862.0313,947.3906 Q4861.5313,947.9688 4860.7344,948.2969 Q4859.6563,948.75 4858.3594,948.75 Q4856.8438,948.75 4855.6406,948.125 Q4854.6563,947.625 4853.9688,946.5625 Q4853.2813,945.4844 4853.2813,944.2031 L4853.2813,943.0469 Q4853.2813,941.7188 4853.8906,940.5781 Q4854.5156,939.4219 4855.6094,938.8125 Q4856.7031,938.1875 4857.9375,938.1875 Q4858.6719,938.1875 4859.3125,938.3594 Q4859.9688,938.5156 4860.5156,938.875 Z " fill="#000000"/><text fill="#000000" font-family="sans-serif" font-size="14" lengthAdjust="spacing" textLength="43" x="4878.25" y="948.7285">Queen</text><line style="stroke:#181818;stroke-width:0.5;" x1="4572" x2="5195" y1="959" y2="959"/><line style="stroke:#181818;stroke-width:0.5;" x1="4572" x2="5195" y1="967" y2="967"/><ellipse cx="4582" cy="981.3047" fill="#84BE84" rx="3" ry="3" style="stroke:#038048;stroke-width:1.0;"/><text fill="#000000" font-family="sans-serif" font-size="14" lengthAdjust="spacing" textLength="599" x="4591" y="985.5332">__init__(Square: int, image: pygame.Surface, color: Tuple[int, int, int], type: str, row: int, col: int)</text></g><!--class King--><g id="elem_King"><rect codeLine="96" fill="#F1F1F1" height="65.6094" id="King" rx="2.5" ry="2.5" style="stroke:#181818;stroke-width:0.5;" width="625" x="5231" y="927"/><ellipse cx="5525.25" cy="943" fill="#ADD1B2" rx="11" ry="11" style="stroke:#181818;stroke-width:1.0;"/><path d="M5528.0156,938.875 Q5528.1719,938.6563 5528.3594,938.5469 Q5528.5469,938.4375 5528.7656,938.4375 Q5529.1406,938.4375 5529.375,938.7031 Q5529.6094,938.9531 5529.6094,939.5625 L5529.6094,941.0156 Q5529.6094,941.625 5529.375,941.8906 Q5529.1406,942.1563 5528.7656,942.1563 Q5528.4219,942.1563 5528.2188,941.9531 Q5528.0156,941.7656 5527.9063,941.25 Q5527.8594,940.8906 5527.6719,940.7031 Q5527.3438,940.3281 5526.7344,940.1094 Q5526.125,939.8906 5525.5,939.8906 Q5524.7344,939.8906 5524.0938,940.2188 Q5523.4688,940.5469 5522.9688,941.2969 Q5522.4844,942.0469 5522.4844,943.0781 L5522.4844,944.1719 Q5522.4844,945.4063 5523.375,946.2344 Q5524.2656,947.0469 5525.8594,947.0469 Q5526.7969,947.0469 5527.4531,946.7969 Q5527.8438,946.6406 5528.2656,946.2031 Q5528.5313,945.9375 5528.6719,945.8594 Q5528.8281,945.7813 5529.0313,945.7813 Q5529.3594,945.7813 5529.6094,946.0469 Q5529.875,946.2969 5529.875,946.6406 Q5529.875,946.9844 5529.5313,947.3906 Q5529.0313,947.9688 5528.2344,948.2969 Q5527.1563,948.75 5525.8594,948.75 Q5524.3438,948.75 5523.1406,948.125 Q5522.1563,947.625 5521.4688,946.5625 Q5520.7813,945.4844 5520.7813,944.2031 L5520.7813,943.0469 Q5520.7813,941.7188 5521.3906,940.5781 Q5522.0156,939.4219 5523.1094,938.8125 Q5524.2031,938.1875 5525.4375,938.1875 Q5526.1719,938.1875 5526.8125,938.3594 Q5527.4688,938.5156 5528.0156,938.875 Z " fill="#000000"/><text fill="#000000" font-family="sans-serif" font-size="14" lengthAdjust="spacing" textLength="28" x="5545.75" y="948.7285">King</text><line style="stroke:#181818;stroke-width:0.5;" x1="5232" x2="5855" y1="959" y2="959"/><line style="stroke:#181818;stroke-width:0.5;" x1="5232" x2="5855" y1="967" y2="967"/><ellipse cx="5242" cy="981.3047" fill="#84BE84" rx="3" ry="3" style="stroke:#038048;stroke-width:1.0;"/><text fill="#000000" font-family="sans-serif" font-size="14" lengthAdjust="spacing" textLength="599" x="5251" y="985.5332">__init__(Square: int, image: pygame.Surface, color: Tuple[int, int, int], type: str, row: int, col: int)</text></g><!--class Board--><g id="elem_Board"><rect codeLine="100" fill="#F1F1F1" height="347.3594" id="Board" rx="2.5" ry="2.5" style="stroke:#181818;stroke-width:0.5;" width="560" x="4009.5" y="520"/><ellipse cx="4266.25" cy="536" fill="#ADD1B2" rx="11" ry="11" style="stroke:#181818;stroke-width:1.0;"/><path d="M4269.0156,531.875 Q4269.1719,531.6563 4269.3594,531.5469 Q4269.5469,531.4375 4269.7656,531.4375 Q4270.1406,531.4375 4270.375,531.7031 Q4270.6094,531.9531 4270.6094,532.5625 L4270.6094,534.0156 Q4270.6094,534.625 4270.375,534.8906 Q4270.1406,535.1563 4269.7656,535.1563 Q4269.4219,535.1563 4269.2188,534.9531 Q4269.0156,534.7656 4268.9063,534.25 Q4268.8594,533.8906 4268.6719,533.7031 Q4268.3438,533.3281 4267.7344,533.1094 Q4267.125,532.8906 4266.5,532.8906 Q4265.7344,532.8906 4265.0938,533.2188 Q4264.4688,533.5469 4263.9688,534.2969 Q4263.4844,535.0469 4263.4844,536.0781 L4263.4844,537.1719 Q4263.4844,538.4063 4264.375,539.2344 Q4265.2656,540.0469 4266.8594,540.0469 Q4267.7969,540.0469 4268.4531,539.7969 Q4268.8438,539.6406 4269.2656,539.2031 Q4269.5313,538.9375 4269.6719,538.8594 Q4269.8281,538.7813 4270.0313,538.7813 Q4270.3594,538.7813 4270.6094,539.0469 Q4270.875,539.2969 4270.875,539.6406 Q4270.875,539.9844 4270.5313,540.3906 Q4270.0313,540.9688 4269.2344,541.2969 Q4268.1563,541.75 4266.8594,541.75 Q4265.3438,541.75 4264.1406,541.125 Q4263.1563,540.625 4262.4688,539.5625 Q4261.7813,538.4844 4261.7813,537.2031 L4261.7813,536.0469 Q4261.7813,534.7188 4262.3906,533.5781 Q4263.0156,532.4219 4264.1094,531.8125 Q4265.2031,531.1875 4266.4375,531.1875 Q4267.1719,531.1875 4267.8125,531.3594 Q4268.4688,531.5156 4269.0156,531.875 Z " fill="#000000"/><text fill="#000000" font-family="sans-serif" font-size="14" lengthAdjust="spacing" textLength="38" x="4286.75" y="541.7285">Board</text><line style="stroke:#181818;stroke-width:0.5;" x1="4010.5" x2="4568.5" y1="552" y2="552"/><rect fill="none" height="6" style="stroke:#C82930;stroke-width:1.0;" width="6" x="4017.5" y="563.3047"/><text fill="#000000" font-family="sans-serif" font-size="14" lengthAdjust="spacing" textLength="59" x="4029.5" y="570.5332">Width: int</text><rect fill="none" height="6" style="stroke:#C82930;stroke-width:1.0;" width="6" x="4017.5" y="580.9141"/><text fill="#000000" font-family="sans-serif" font-size="14" lengthAdjust="spacing" textLength="63" x="4029.5" y="588.1426">Height: int</text><rect fill="none" height="6" style="stroke:#C82930;stroke-width:1.0;" width="6" x="4017.5" y="598.5234"/><text fill="#000000" font-family="sans-serif" font-size="14" lengthAdjust="spacing" textLength="69" x="4029.5" y="605.752">Square: int</text><rect fill="none" height="6" style="stroke:#C82930;stroke-width:1.0;" width="6" x="4017.5" y="616.1328"/><text fill="#000000" font-family="sans-serif" font-size="14" lengthAdjust="spacing" textLength="99" x="4029.5" y="623.3613">GameBoard: int</text><rect fill="none" height="6" style="stroke:#C82930;stroke-width:1.0;" width="6" x="4017.5" y="633.7422"/><text fill="#000000" font-family="sans-serif" font-size="14" lengthAdjust="spacing" textLength="135" x="4029.5" y="640.9707">Win: pygame.Surface</text><rect fill="none" height="6" style="stroke:#C82930;stroke-width:1.0;" width="6" x="4017.5" y="651.3516"/><text fill="#000000" font-family="sans-serif" font-size="14" lengthAdjust="spacing" textLength="57" x="4029.5" y="658.5801">Rows: int</text><rect fill="none" height="6" style="stroke:#C82930;stroke-width:1.0;" width="6" x="4017.5" y="668.9609"/><text fill="#000000" font-family="sans-serif" font-size="14" lengthAdjust="spacing" textLength="51" x="4029.5" y="676.1895">Cols: int</text><rect fill="none" height="6" style="stroke:#C82930;stroke-width:1.0;" width="6" x="4017.5" y="686.5703"/><text fill="#000000" font-family="sans-serif" font-size="14" lengthAdjust="spacing" textLength="141" x="4029.5" y="693.7988">Board: List[List[Piece]]</text><rect fill="none" height="6" style="stroke:#C82930;stroke-width:1.0;" width="6" x="4017.5" y="704.1797"/><text fill="#000000" font-family="sans-serif" font-size="14" lengthAdjust="spacing" textLength="155" x="4029.5" y="711.4082">promotion_choice: Piece</text><line style="stroke:#181818;stroke-width:0.5;" x1="4010.5" x2="4568.5" y1="718.4844" y2="718.4844"/><ellipse cx="4020.5" cy="732.7891" fill="#84BE84" rx="3" ry="3" style="stroke:#038048;stroke-width:1.0;"/><text fill="#000000" font-family="sans-serif" font-size="14" lengthAdjust="spacing" textLength="534" x="4029.5" y="737.0176">__init__(Width: int, Height: int, Rows: int, Cols: int, Square: int, Win: pygame.Surface)</text><ellipse cx="4020.5" cy="750.3984" fill="#84BE84" rx="3" ry="3" style="stroke:#038048;stroke-width:1.0;"/><text fill="#000000" font-family="sans-serif" font-size="14" lengthAdjust="spacing" textLength="130" x="4029.5" y="754.627">create_Board(): void</text><ellipse cx="4020.5" cy="768.0078" fill="#84BE84" rx="3" ry="3" style="stroke:#038048;stroke-width:1.0;"/><text fill="#000000" font-family="sans-serif" font-size="14" lengthAdjust="spacing" textLength="209" x="4029.5" y="772.2363">get_piece(row: int, col: int): Piece</text><ellipse cx="4020.5" cy="785.6172" fill="#84BE84" rx="3" ry="3" style="stroke:#038048;stroke-width:1.0;"/><text fill="#000000" font-family="sans-serif" font-size="14" lengthAdjust="spacing" textLength="257" x="4029.5" y="789.8457">move(piece: Piece, row: int, col: int): void</text><ellipse cx="4020.5" cy="803.2266" fill="#84BE84" rx="3" ry="3" style="stroke:#038048;stroke-width:1.0;"/><text fill="#000000" font-family="sans-serif" font-size="14" lengthAdjust="spacing" textLength="120" x="4029.5" y="807.4551">draw_Board(): void</text><ellipse cx="4020.5" cy="820.8359" fill="#84BE84" rx="3" ry="3" style="stroke:#038048;stroke-width:1.0;"/><text fill="#000000" font-family="sans-serif" font-size="14" lengthAdjust="spacing" textLength="336" x="4029.5" y="825.0645">draw_piece(piece: Piece, Win: pygame.Surface): void</text><ellipse cx="4020.5" cy="838.4453" fill="#84BE84" rx="3" ry="3" style="stroke:#038048;stroke-width:1.0;"/><text fill="#000000" font-family="sans-serif" font-size="14" lengthAdjust="spacing" textLength="123" x="4029.5" y="842.6738">draw_pieces(): void</text><ellipse cx="4020.5" cy="856.0547" fill="#84BE84" rx="3" ry="3" style="stroke:#038048;stroke-width:1.0;"/><text fill="#000000" font-family="sans-serif" font-size="14" lengthAdjust="spacing" textLength="202" x="4029.5" y="860.2832">promote_pawn(choice: str): void</text></g><!--link Game to Board--><g id="link_Game_Board"><path codeLine="120" d="M4105.34,460.15 C4121.27,480.24 4133.4939,495.6672 4148.9839,515.2172 " fill="none" id="Game-to-Board" style="stroke:#181818;stroke-width:1.0;"/><polygon fill="#181818" points="4152.71,519.92,4150.256,510.3818,4149.6049,516.001,4143.9856,515.3499,4152.71,519.92" style="stroke:#181818;stroke-width:1.0;"/></g><!--link Game to Piece--><g id="link_Game_Piece"><path codeLine="121" d="M3747.66,460.15 C3729.4,483.18 3714.8359,501.5471 3697.2559,523.7371 " fill="none" id="Game-to-Piece" style="stroke:#181818;stroke-width:1.0;"/><polygon fill="#181818" points="3693.53,528.44,3702.2541,523.8695,3696.6349,524.5209,3695.9836,518.9017,3693.53,528.44" style="stroke:#181818;stroke-width:1.0;"/></g><!--link Piece to MoveStrategy--><g id="link_Piece_MoveStrategy"><path codeLine="122" d="M3152.82,750.96 C2762.52,804.61 2195.4041,882.5727 1878.2241,926.1827 " fill="none" id="Piece-to-MoveStrategy" style="stroke:#181818;stroke-width:1.0;"/><polygon fill="#181818" points="1872.28,927,1881.741,929.7368,1877.2334,926.3189,1880.6513,921.8114,1872.28,927" style="stroke:#181818;stroke-width:1.0;"/></g><!--reverse link MoveStrategy to PawnMoveStrategy--><g id="link_MoveStrategy_PawnMoveStrategy"><path codeLine="123" d="M1364.9031,981.4814 C1141.8331,998.6514 828.04,1024.15 539.5,1053 C533.76,1053.57 527.96,1054.16 522.1,1054.77 " fill="none" id="MoveStrategy-backto-PawnMoveStrategy" style="stroke:#181818;stroke-width:1.0;"/><polygon fill="none" points="1382.85,980.1,1364.4426,975.4991,1365.3636,987.4637,1382.85,980.1" style="stroke:#181818;stroke-width:1.0;"/></g><!--reverse link MoveStrategy to RookMoveStrategy--><g id="link_MoveStrategy_RookMoveStrategy"><path codeLine="124" d="M1408.7101,995.6862 C1286.1301,1014.1162 1150.39,1034.52 1027.76,1052.95 " fill="none" id="MoveStrategy-backto-RookMoveStrategy" style="stroke:#181818;stroke-width:1.0;"/><polygon fill="none" points="1426.51,993.01,1407.818,989.7529,1409.6021,1001.6195,1426.51,993.01" style="stroke:#181818;stroke-width:1.0;"/></g><!--reverse link MoveStrategy to BishopMoveStrategy--><g id="link_MoveStrategy_BishopMoveStrategy"><path codeLine="125" d="M1551.911,1000.489 C1511.171,1018.859 1476.63,1034.44 1435.86,1052.82 " fill="none" id="MoveStrategy-backto-BishopMoveStrategy" style="stroke:#181818;stroke-width:1.0;"/><polygon fill="none" points="1568.32,993.09,1549.4447,995.0193,1554.3773,1005.9586,1568.32,993.09" style="stroke:#181818;stroke-width:1.0;"/></g><!--reverse link MoveStrategy to KnightMoveStrategy--><g id="link_MoveStrategy_KnightMoveStrategy"><path codeLine="126" d="M1727.089,1000.489 C1767.829,1018.859 1802.37,1034.44 1843.14,1052.82 " fill="none" id="MoveStrategy-backto-KnightMoveStrategy" style="stroke:#181818;stroke-width:1.0;"/><polygon fill="none" points="1710.68,993.09,1724.6227,1005.9586,1729.5553,995.0193,1710.68,993.09" style="stroke:#181818;stroke-width:1.0;"/></g><!--reverse link MoveStrategy to QueenMoveStrategy--><g id="link_MoveStrategy_QueenMoveStrategy"><path codeLine="127" d="M1870.2899,995.6862 C1992.8699,1014.1162 2128.61,1034.52 2251.24,1052.95 " fill="none" id="MoveStrategy-backto-QueenMoveStrategy" style="stroke:#181818;stroke-width:1.0;"/><polygon fill="none" points="1852.49,993.01,1869.3979,1001.6195,1871.182,989.7529,1852.49,993.01" style="stroke:#181818;stroke-width:1.0;"/></g><!--reverse link MoveStrategy to KingMoveStrategy--><g id="link_MoveStrategy_KingMoveStrategy"><path codeLine="128" d="M1914.0716,993.1019 C2280.5116,1027.7919 2373.05,1018.39 2739.5,1053 C2745.24,1053.54 2751.05,1054.1 2756.91,1054.68 " fill="none" id="MoveStrategy-backto-KingMoveStrategy" style="stroke:#181818;stroke-width:1.0;"/><polygon fill="none" points="1896.16,991.32,1913.4776,999.0725,1914.6656,987.1314,1896.16,991.32" style="stroke:#181818;stroke-width:1.0;"/></g><!--reverse link Piece to Pawn--><g id="link_Piece_Pawn"><path codeLine="129" d="M3134.9809,780.3668 C2881.4809,831.1668 2588.15,889.94 2403.44,926.95 " fill="none" id="Piece-backto-Pawn" style="stroke:#181818;stroke-width:1.0;"/><polygon fill="none" points="3152.63,776.83,3133.802,774.4837,3136.1598,786.2498,3152.63,776.83" style="stroke:#181818;stroke-width:1.0;"/></g><!--reverse link Piece to Rook--><g id="link_Piece_Rook"><path codeLine="130" d="M3137.2515,865.3253 C3072.4415,891.2953 3028.69,908.83 2983.41,926.97 " fill="none" id="Piece-backto-Rook" style="stroke:#181818;stroke-width:1.0;"/><polygon fill="none" points="3153.96,858.63,3135.0198,859.7558,3139.4833,870.8948,3153.96,858.63" style="stroke:#181818;stroke-width:1.0;"/></g><!--reverse link Piece to Bishop--><g id="link_Piece_Bishop"><path codeLine="131" d="M3563.5,876.63 C3563.5,902.55 3563.5,908.73 3563.5,926.86 " fill="none" id="Piece-backto-Bishop" style="stroke:#181818;stroke-width:1.0;"/><polygon fill="none" points="3563.5,858.63,3557.5,876.63,3569.5,876.63,3563.5,858.63" style="stroke:#181818;stroke-width:1.0;"/></g><!--reverse link Piece to Knight--><g id="link_Piece_Knight"><path codeLine="132" d="M3988.0726,865.225 C3995.1726,868.065 3985.51,864.2 3992.5,867 C4042.4,886.97 4098.4,909.27 4142.76,926.92 " fill="none" id="Piece-backto-Knight" style="stroke:#181818;stroke-width:1.0;"/><polygon fill="none" points="3971.36,858.54,3985.8442,870.7959,3990.3009,859.6542,3971.36,858.54" style="stroke:#181818;stroke-width:1.0;"/></g><!--reverse link Piece to Queen--><g id="link_Piece_Queen"><path codeLine="133" d="M3977.7592,863.3883 C3988.5092,866.4083 3981.88,864.37 3992.5,867 C4006.88,870.56 4319.8,902.47 4570.78,927.73 " fill="none" id="Piece-backto-Queen" style="stroke:#181818;stroke-width:1.0;"/><polygon fill="none" points="3960.43,858.52,3976.1364,869.1647,3979.3819,857.6119,3960.43,858.52" style="stroke:#181818;stroke-width:1.0;"/></g><!--reverse link Piece to King--><g id="link_Piece_King"><path codeLine="134" d="M3974.6965,863.066 C3986.4965,866.146 3980.84,864.44 3992.5,867 C4257.87,925.15 4942.56,907.22 5213.5,927 C5219.24,927.42 5225.04,927.85 5230.87,928.3 " fill="none" id="Piece-backto-King" style="stroke:#181818;stroke-width:1.0;"/><polygon fill="none" points="3957.28,858.52,3973.1812,868.8715,3976.2118,857.2605,3957.28,858.52" style="stroke:#181818;stroke-width:1.0;"/></g><!--SRC=[nLVTRjem6BtdARmx464FWAP9enURr4tQogHULCWopaTYrSIPOyXGrtUVVv9W9uPsamfSXFZpiRyV7zidxrBOi0BGftMb9A7gXfEgGjGyHoFxXpwJBQ2d4TA_sJrBLJv7h52k_GLObYlFSC-AEIeFcHxpVhcJ6qB1TIm4aUaSsJzdMVxQ4GdUs0euK0KQzPr1Eqxjf9xnvwxayA2H2MeVAzU_9vobU2lsKCtHLrQfXn2xQd0BJkWZBit45UQm2OBEcO8JVIOJh6UNSxGMWZjZpOh2M7JDh66ACIkOmdXyB522lE8aw4xKLVDw8tZxwjKWGP7QJTpqkp8bEaBjDXNrU397Uy5S5QSIAb2XYUQWKpNJ67iNzTJLTon5tJYaWjktOBIjPHnqd4g2HQtTejgosuTTkDKgGRQOpK8cw0MNgIGr9dl2E5bpS8iPfbJbeiQkwf6EKegjK4mKcEQ2qVxWd1IfdhP3ZHtABbyBV6xPRYDkwJwWADkI3E84rva9UOwfRH4wkDTIXnAET9hzzheEtdklHcS9Jqcfzyvha0Q1pVPNa6blttHpsRHwx0xe6gs5NU5JTKXGbsUC4maw4qcp4oolpb3KsmM4KroA7XSe1oBFSoq3DG0iJX1zSggmca_XaUhdqj3hYJI8vxZJS0_zJmWDfKbTHDo_gSyx8HulxNF1z6bGNjhhRM5E-Kjx_R43kFYYth8YkxHFGzxMpuNEeKb8u-jvTuI-ddz7xUlvjoI_OlgQxbTSVBDbNgsx1qh5gFPcrxqipZjnwfgTG0sa-s3pkjw- -FBL-rlhOYh1w68RuF0IjqTGN2Pu8LejyUzoDUBJsftJSBvO0l61FIdYQgkbgpu4JwXM-tKsctrilgowfilGgLdJ3bHTS8X_-3ER3JH21DA_qYEGuGqS0Gqlp0XeSB_59kfTHqssNJv-smJljrsaliM5vLji3054E_mB]--></g></svg>